<svg xmlns="http://www.w3.org/2000/svg" viewBox="0 0 54 54" class="undefined">
<style>
.svg-settings-path {
    fill: #dddddd;
}
</style>
<path d="M51.2 21h-5.1c-0.8 0-1.5-0.4-1.8-1.2s-0.2-1.5 0.4-2.1l3.6-3.6c0.5-0.5 0.8-1.2 0.8-2 0-0.7-0.3-1.4-0.8-2l-4.6-4.6c-1-1-2.9-1.1-3.9 0l-3.6 3.6c-0.6 0.6-1.4 0.7-2.1 0.4C33.4 9.3 33 8.6 33 7.8V2.8C33 1.2 31.8 0 30.2 0H23.8C22.2 0 21 1.2 21 2.8v5.1c0 0.8-0.4 1.5-1.2 1.8 -0.7 0.3-1.5 0.2-2.1-0.4l-3.6-3.6c-1.1-1.1-2.9-1-3.9 0l-4.6 4.6c-0.5 0.5-0.8 1.2-0.8 2 0 0.7 0.3 1.4 0.8 2l3.6 3.6c0.6 0.6 0.7 1.4 0.4 2.1S8.6 21 7.8 21H2.8C1.2 21 0 22.2 0 23.8v6.4C0 31.8 1.2 33 2.8 33h5.1c0.8 0 1.5 0.4 1.8 1.2s0.2 1.5-0.4 2.1l-3.6 3.6c-0.5 0.5-0.8 1.2-0.8 2 0 0.7 0.3 1.4 0.8 2l4.6 4.6c1.1 1.1 2.9 1.1 3.9 0l3.6-3.6c0.6-0.6 1.4-0.7 2.1-0.4 0.8 0.3 1.2 1 1.2 1.8v5.1c0 1.5 1.2 2.8 2.8 2.8h6.4c1.5 0 2.8-1.2 2.8-2.8v-5.1c0-0.8 0.4-1.5 1.2-1.8 0.8-0.3 1.5-0.2 2.1 0.4l3.6 3.6c1.1 1.1 2.9 1.1 3.9 0l4.6-4.6c0.5-0.5 0.8-1.2 0.8-2 0-0.7-0.3-1.4-0.8-2l-3.6-3.6c-0.6-0.6-0.7-1.4-0.4-2.1S45.4 33 46.2 33h5.1c1.5 0 2.8-1.2 2.8-2.8V23.8C54 22.2 52.8 21 51.2 21zM52 30.2C52 30.7 51.7 31 51.2 31h-5.1c-1.6 0-3 0.9-3.6 2.4 -0.6 1.5-0.3 3.1 0.9 4.3l3.6 3.6c0.3 0.3 0.3 0.8 0 1.1l-4.6 4.6c-0.3 0.3-0.8 0.3-1.1 0l-3.6-3.6c-1.1-1.1-2.8-1.5-4.3-0.9 -1.5 0.6-2.4 2-2.4 3.6v5.1C31 51.7 30.7 52 30.2 52H23.8C23.4 52 23 51.7 23 51.2v-5.1c0-1.6-0.9-3-2.4-3.6 -0.5-0.2-1-0.3-1.5-0.3 -1 0-2 0.4-2.8 1.2l-3.6 3.6c-0.3 0.3-0.8 0.3-1.1 0l-4.6-4.6c-0.3-0.3-0.3-0.8 0-1.1l3.6-3.6c1.1-1.1 1.5-2.8 0.9-4.3C10.9 31.9 9.5 31 7.8 31H2.8C2.4 31 2 30.7 2 30.2V23.8C2 23.4 2.4 23 2.8 23h5.1c1.6 0 3-0.9 3.6-2.4 0.6-1.5 0.3-3.1-0.9-4.3l-3.6-3.6c-0.3-0.3-0.3-0.8 0-1.1l4.6-4.6c0.3-0.3 0.8-0.3 1.1 0l3.6 3.6c1.1 1.1 2.8 1.5 4.3 0.9C22.1 10.9 23 9.5 23 7.8V2.8C23 2.4 23.4 2 23.8 2h6.4C30.7 2 31 2.4 31 2.8v5.1c0 1.6 0.9 3 2.4 3.6 1.5 0.6 3.1 0.3 4.3-0.9l3.6-3.6c0.3-0.3 0.8-0.3 1.1 0l4.6 4.6c0.3 0.3 0.3 0.8 0 1.1l-3.6 3.6c-1.1 1.1-1.5 2.8-0.9 4.3 0.6 1.5 2 2.4 3.6 2.4h5.1C51.7 23 52 23.4 52 23.8V30.2z" class="svg-settings-path"/><path d="M27 18c-5 0-9 4-9 9s4 9 9 9 9-4 9-9S32 18 27 18zM27 34c-3.9 0-7-3.1-7-7s3.1-7 7-7 7 3.1 7 7S30.9 34 27 34z" class="svg-settings-path"/></svg>